<svg xmlns="http://www.w3.org/2000/svg" xmlns:xlink="http://www.w3.org/1999/xlink" width="500" zoomAndPan="magnify" viewBox="0 0 375 374.999991" height="500" preserveAspectRatio="xMidYMid meet" version="1.0"><defs><g/><clipPath id="2facd1b02b"><path d="M 114.171875 91.605469 L 261.171875 91.605469 L 261.171875 222.855469 L 114.171875 222.855469 Z M 114.171875 91.605469 " clip-rule="nonzero"/></clipPath><clipPath id="9b027ca994"><path d="M 166.535156 137.117188 L 187.585938 137.117188 L 187.585938 158.167969 L 166.535156 158.167969 Z M 166.535156 137.117188 " clip-rule="nonzero"/></clipPath><clipPath id="f88b2042db"><path d="M 177.0625 137.117188 C 171.25 137.117188 166.535156 141.828125 166.535156 147.644531 C 166.535156 153.457031 171.25 158.167969 177.0625 158.167969 C 182.875 158.167969 187.585938 153.457031 187.585938 147.644531 C 187.585938 141.828125 182.875 137.117188 177.0625 137.117188 Z M 177.0625 137.117188 " clip-rule="nonzero"/></clipPath><clipPath id="a1a1885214"><path d="M 167.285156 174.191406 L 188.335938 174.191406 L 188.335938 195.238281 L 167.285156 195.238281 Z M 167.285156 174.191406 " clip-rule="nonzero"/></clipPath><clipPath id="fa00c17726"><path d="M 177.8125 174.191406 C 172 174.191406 167.285156 178.902344 167.285156 184.714844 C 167.285156 190.527344 172 195.238281 177.8125 195.238281 C 183.625 195.238281 188.335938 190.527344 188.335938 184.714844 C 188.335938 178.902344 183.625 174.191406 177.8125 174.191406 Z M 177.8125 174.191406 " clip-rule="nonzero"/></clipPath><clipPath id="dafe3a387d"><path d="M 184.484375 155.917969 L 205.535156 155.917969 L 205.535156 176.96875 L 184.484375 176.96875 Z M 184.484375 155.917969 " clip-rule="nonzero"/></clipPath><clipPath id="457cb2d69e"><path d="M 195.011719 155.917969 C 189.195312 155.917969 184.484375 160.628906 184.484375 166.441406 C 184.484375 172.253906 189.195312 176.96875 195.011719 176.96875 C 200.824219 176.96875 205.535156 172.253906 205.535156 166.441406 C 205.535156 160.628906 200.824219 155.917969 195.011719 155.917969 Z M 195.011719 155.917969 " clip-rule="nonzero"/></clipPath></defs><g clip-path="url(#2facd1b02b)"><path fill="#14b7dc" d="M 183.976562 176.644531 L 187.410156 172.769531 C 189.039062 174.738281 191.308594 176.011719 193.984375 176.355469 L 193.984375 195.511719 L 175.25 206.160156 L 156.578125 216.925781 L 119.234375 195.511719 L 119.234375 152.570312 L 129.527344 146.609375 L 129.527344 140.824219 L 114.171875 149.679688 L 114.171875 198.40625 L 156.578125 222.769531 L 198.984375 198.40625 L 198.984375 175.664062 C 202.652344 174.15625 205.152344 170.570312 205.152344 166.402344 C 205.152344 160.90625 200.613281 156.390625 195.089844 156.390625 C 191.832031 156.390625 188.921875 157.894531 187.0625 160.269531 L 183.570312 156.273438 C 186.070312 154.597656 187.640625 151.878906 187.933594 148.808594 L 200.148438 141.75 L 218.824219 131.042969 L 256.167969 152.457031 L 256.167969 195.398438 L 237.4375 206.160156 L 218.765625 216.867188 L 200.089844 206.160156 L 197.183594 204.539062 L 192.121094 207.433594 L 218.765625 222.710938 L 261.171875 198.347656 L 261.171875 149.621094 L 218.765625 125.253906 L 186.828125 143.601562 C 185.199219 140.300781 181.765625 137.988281 177.8125 137.988281 C 172.285156 137.988281 167.746094 142.5 167.746094 148 C 167.746094 153.324219 171.996094 157.78125 177.402344 158.011719 L 177.402344 174.621094 C 173.796875 174.792969 170.773438 176.761719 169.027344 179.714844 L 156.460938 172.480469 L 137.789062 161.773438 L 137.789062 118.832031 L 156.460938 108.125 L 175.136719 97.417969 L 212.480469 118.832031 L 212.480469 125.023438 L 217.542969 122.128906 L 217.542969 115.9375 L 175.195312 91.691406 L 132.785156 116.054688 L 132.785156 164.78125 L 167.746094 184.921875 C 167.804688 190.421875 172.285156 194.875 177.8125 194.875 C 183.335938 194.875 187.875 190.363281 187.875 184.863281 C 187.992188 181.390625 186.363281 178.5 183.976562 176.644531 Z M 186.886719 172.015625 L 183.28125 176.066406 C 181.824219 175.140625 180.195312 174.621094 178.394531 174.5625 L 178.394531 158.011719 C 180.023438 157.953125 181.535156 157.492188 182.929688 156.738281 L 186.710938 160.964844 C 185.664062 162.46875 185.199219 164.378906 185.199219 166.289062 C 185.082031 168.488281 185.78125 170.453125 186.886719 172.015625 Z M 186.886719 172.015625 " fill-opacity="1" fill-rule="evenodd"/></g><g clip-path="url(#9b027ca994)"><g clip-path="url(#f88b2042db)"><path fill="#6ee4ff" d="M 166.535156 137.117188 L 187.585938 137.117188 L 187.585938 158.167969 L 166.535156 158.167969 Z M 166.535156 137.117188 " fill-opacity="1" fill-rule="nonzero"/></g></g><g clip-path="url(#a1a1885214)"><g clip-path="url(#fa00c17726)"><path fill="#6ee4ff" d="M 167.285156 174.191406 L 188.335938 174.191406 L 188.335938 195.238281 L 167.285156 195.238281 Z M 167.285156 174.191406 " fill-opacity="1" fill-rule="nonzero"/></g></g><g clip-path="url(#dafe3a387d)"><g clip-path="url(#457cb2d69e)"><path fill="#6ee4ff" d="M 184.484375 155.917969 L 205.535156 155.917969 L 205.535156 176.96875 L 184.484375 176.96875 Z M 184.484375 155.917969 " fill-opacity="1" fill-rule="nonzero"/></g></g><g fill="#06ecfc" fill-opacity="1"><g transform="translate(86.442678, 262.989153)"><g><path d="M 11.09375 -24.28125 C 14.207031 -24.28125 17.019531 -23.453125 19.53125 -21.796875 L 17.84375 -18.21875 C 15.382812 -19.707031 13.03125 -20.453125 10.78125 -20.453125 C 9.5625 -20.453125 8.601562 -20.234375 7.90625 -19.796875 C 7.207031 -19.359375 6.859375 -18.738281 6.859375 -17.9375 C 6.859375 -17.132812 7.175781 -16.453125 7.8125 -15.890625 C 8.457031 -15.328125 9.257812 -14.910156 10.21875 -14.640625 C 11.1875 -14.378906 12.234375 -14.046875 13.359375 -13.640625 C 14.484375 -13.242188 15.523438 -12.820312 16.484375 -12.375 C 17.453125 -11.925781 18.253906 -11.222656 18.890625 -10.265625 C 19.523438 -9.316406 19.84375 -8.164062 19.84375 -6.8125 C 19.84375 -4.707031 19 -3.019531 17.3125 -1.75 C 15.625 -0.488281 13.4375 0.140625 10.75 0.140625 C 8.90625 0.140625 7.125 -0.203125 5.40625 -0.890625 C 3.6875 -1.578125 2.179688 -2.507812 0.890625 -3.6875 L 2.65625 -7.203125 C 3.875 -6.078125 5.207031 -5.207031 6.65625 -4.59375 C 8.113281 -3.988281 9.5 -3.6875 10.8125 -3.6875 C 12.238281 -3.6875 13.347656 -3.941406 14.140625 -4.453125 C 14.929688 -4.972656 15.328125 -5.691406 15.328125 -6.609375 C 15.328125 -7.441406 15.003906 -8.140625 14.359375 -8.703125 C 13.710938 -9.265625 12.90625 -9.675781 11.9375 -9.9375 C 10.976562 -10.195312 9.9375 -10.515625 8.8125 -10.890625 C 7.6875 -11.273438 6.640625 -11.675781 5.671875 -12.09375 C 4.710938 -12.519531 3.910156 -13.203125 3.265625 -14.140625 C 2.628906 -15.085938 2.3125 -16.226562 2.3125 -17.5625 C 2.3125 -19.601562 3.113281 -21.234375 4.71875 -22.453125 C 6.320312 -23.671875 8.445312 -24.28125 11.09375 -24.28125 Z M 11.09375 -24.28125 "/></g></g></g><g fill="#06ecfc" fill-opacity="1"><g transform="translate(108.546794, 262.989153)"><g><path d="M 18.734375 -5.4375 L 6.578125 -5.4375 L 4.265625 0 L 0.03125 0 L 10.671875 -24.109375 L 14.84375 -24.109375 L 25.375 0 L 21.046875 0 Z M 17.1875 -9.0625 L 12.640625 -19.765625 L 8.09375 -9.0625 Z M 17.1875 -9.0625 "/></g></g></g><g fill="#06ecfc" fill-opacity="1"><g transform="translate(134.644761, 262.989153)"><g><path d="M 28.65625 0 L 24.890625 0 L 24.859375 -18.015625 L 17.25 -2.515625 L 14.59375 -2.515625 L 6.984375 -18.015625 L 6.984375 0 L 3.171875 0 L 3.171875 -24.109375 L 7.984375 -24.109375 L 15.9375 -8.09375 L 23.859375 -24.109375 L 28.65625 -24.109375 Z M 28.65625 0 "/></g></g></g><g fill="#06ecfc" fill-opacity="1"><g transform="translate(167.181084, 262.989153)"><g/></g></g><g fill="#06ecfc" fill-opacity="1"><g transform="translate(176.752773, 262.989153)"><g><path d="M 3.171875 -24.109375 L 13.046875 -24.109375 C 16.648438 -24.109375 19.628906 -22.96875 21.984375 -20.6875 C 24.335938 -18.414062 25.515625 -15.535156 25.515625 -12.046875 C 25.515625 -8.554688 24.332031 -5.675781 21.96875 -3.40625 C 19.601562 -1.132812 16.597656 0 12.953125 0 L 3.171875 0 Z M 7.234375 -20.453125 L 7.234375 -3.65625 L 13.15625 -3.65625 C 15.519531 -3.65625 17.488281 -4.441406 19.0625 -6.015625 C 20.632812 -7.585938 21.421875 -9.585938 21.421875 -12.015625 C 21.421875 -14.453125 20.609375 -16.46875 18.984375 -18.0625 C 17.367188 -19.65625 15.367188 -20.453125 12.984375 -20.453125 Z M 7.234375 -20.453125 "/></g></g></g><g fill="#06ecfc" fill-opacity="1"><g transform="translate(204.124636, 262.989153)"><g><path d="M 23.65625 -24.109375 L 23.65625 -9.984375 C 23.65625 -6.835938 22.722656 -4.359375 20.859375 -2.546875 C 19.003906 -0.734375 16.445312 0.171875 13.1875 0.171875 C 9.925781 0.171875 7.359375 -0.734375 5.484375 -2.546875 C 3.617188 -4.359375 2.6875 -6.835938 2.6875 -9.984375 L 2.6875 -24.109375 L 6.75 -24.109375 L 6.75 -9.984375 C 6.75 -7.960938 7.328125 -6.375 8.484375 -5.21875 C 9.648438 -4.0625 11.226562 -3.484375 13.21875 -3.484375 C 15.195312 -3.484375 16.753906 -4.054688 17.890625 -5.203125 C 19.023438 -6.347656 19.59375 -7.941406 19.59375 -9.984375 L 19.59375 -24.109375 Z M 23.65625 -24.109375 "/></g></g></g><g fill="#06ecfc" fill-opacity="1"><g transform="translate(231.117768, 262.989153)"><g><path d="M 18.453125 0 L 14.046875 -7.296875 C 13.816406 -7.273438 13.453125 -7.265625 12.953125 -7.265625 L 7.234375 -7.265625 L 7.234375 0 L 3.171875 0 L 3.171875 -24.109375 L 12.953125 -24.109375 C 16.023438 -24.109375 18.410156 -23.390625 20.109375 -21.953125 C 21.804688 -20.515625 22.65625 -18.488281 22.65625 -15.875 C 22.65625 -13.945312 22.222656 -12.316406 21.359375 -10.984375 C 20.503906 -9.648438 19.273438 -8.675781 17.671875 -8.0625 L 23.078125 0 Z M 7.234375 -10.921875 L 12.953125 -10.921875 C 16.847656 -10.921875 18.796875 -12.535156 18.796875 -15.765625 C 18.796875 -18.890625 16.847656 -20.453125 12.953125 -20.453125 L 7.234375 -20.453125 Z M 7.234375 -10.921875 "/></g></g></g><g fill="#06ecfc" fill-opacity="1"><g transform="translate(256.699282, 262.989153)"><g><path d="M 28.65625 0 L 24.890625 0 L 24.859375 -18.015625 L 17.25 -2.515625 L 14.59375 -2.515625 L 6.984375 -18.015625 L 6.984375 0 L 3.171875 0 L 3.171875 -24.109375 L 7.984375 -24.109375 L 15.9375 -8.09375 L 23.859375 -24.109375 L 28.65625 -24.109375 Z M 28.65625 0 "/></g></g></g><g fill="#ffffff" fill-opacity="1"><g transform="translate(141.665885, 278.677863)"><g><path d="M 1 0 L 1 -8.546875 L 3.40625 -8.546875 C 4.15625 -8.546875 4.8125 -8.378906 5.375 -8.046875 C 5.945312 -7.722656 6.390625 -7.257812 6.703125 -6.65625 C 7.015625 -6.050781 7.171875 -5.351562 7.171875 -4.5625 L 7.171875 -4.015625 C 7.171875 -3.210938 7.015625 -2.503906 6.703125 -1.890625 C 6.398438 -1.285156 5.957031 -0.820312 5.375 -0.5 C 4.800781 -0.175781 4.128906 -0.0078125 3.359375 0 Z M 2.125 -7.625 L 2.125 -0.921875 L 3.3125 -0.921875 C 4.175781 -0.921875 4.847656 -1.191406 5.328125 -1.734375 C 5.816406 -2.273438 6.0625 -3.046875 6.0625 -4.046875 L 6.0625 -4.546875 C 6.0625 -5.515625 5.832031 -6.265625 5.375 -6.796875 C 4.914062 -7.335938 4.269531 -7.613281 3.4375 -7.625 Z M 2.125 -7.625 "/></g></g></g><g fill="#ffffff" fill-opacity="1"><g transform="translate(152.785582, 278.677863)"><g><path d="M 5.828125 -3.953125 L 2.125 -3.953125 L 2.125 -0.921875 L 6.421875 -0.921875 L 6.421875 0 L 1 0 L 1 -8.546875 L 6.375 -8.546875 L 6.375 -7.625 L 2.125 -7.625 L 2.125 -4.875 L 5.828125 -4.875 Z M 5.828125 -3.953125 "/></g></g></g><g fill="#ffffff" fill-opacity="1"><g transform="translate(162.853372, 278.677863)"><g><path d="M 3.828125 -1.5 L 6.265625 -8.546875 L 7.5 -8.546875 L 4.328125 0 L 3.328125 0 L 0.171875 -8.546875 L 1.390625 -8.546875 Z M 3.828125 -1.5 "/></g></g></g><g fill="#ffffff" fill-opacity="1"><g transform="translate(173.738007, 278.677863)"><g><path d="M 5.828125 -3.953125 L 2.125 -3.953125 L 2.125 -0.921875 L 6.421875 -0.921875 L 6.421875 0 L 1 0 L 1 -8.546875 L 6.375 -8.546875 L 6.375 -7.625 L 2.125 -7.625 L 2.125 -4.875 L 5.828125 -4.875 Z M 5.828125 -3.953125 "/></g></g></g><g fill="#ffffff" fill-opacity="1"><g transform="translate(183.805797, 278.677863)"><g><path d="M 2.125 -0.921875 L 6.1875 -0.921875 L 6.1875 0 L 1 0 L 1 -8.546875 L 2.125 -8.546875 Z M 2.125 -0.921875 "/></g></g></g><g fill="#ffffff" fill-opacity="1"><g transform="translate(193.509242, 278.677863)"><g><path d="M 7.578125 -4 C 7.578125 -3.164062 7.429688 -2.4375 7.140625 -1.8125 C 6.859375 -1.1875 6.457031 -0.707031 5.9375 -0.375 C 5.425781 -0.0390625 4.828125 0.125 4.140625 0.125 C 3.460938 0.125 2.863281 -0.0390625 2.34375 -0.375 C 1.820312 -0.707031 1.414062 -1.179688 1.125 -1.796875 C 0.84375 -2.410156 0.695312 -3.117188 0.6875 -3.921875 L 0.6875 -4.546875 C 0.6875 -5.367188 0.828125 -6.09375 1.109375 -6.71875 C 1.398438 -7.351562 1.804688 -7.835938 2.328125 -8.171875 C 2.859375 -8.503906 3.457031 -8.671875 4.125 -8.671875 C 4.8125 -8.671875 5.414062 -8.503906 5.9375 -8.171875 C 6.457031 -7.835938 6.859375 -7.359375 7.140625 -6.734375 C 7.429688 -6.109375 7.578125 -5.378906 7.578125 -4.546875 Z M 6.453125 -4.546875 C 6.453125 -5.566406 6.25 -6.347656 5.84375 -6.890625 C 5.4375 -7.429688 4.863281 -7.703125 4.125 -7.703125 C 3.414062 -7.703125 2.851562 -7.429688 2.4375 -6.890625 C 2.03125 -6.347656 1.820312 -5.59375 1.8125 -4.625 L 1.8125 -4 C 1.8125 -3.019531 2.019531 -2.25 2.4375 -1.6875 C 2.851562 -1.125 3.421875 -0.84375 4.140625 -0.84375 C 4.867188 -0.84375 5.429688 -1.109375 5.828125 -1.640625 C 6.234375 -2.171875 6.441406 -2.929688 6.453125 -3.921875 Z M 6.453125 -4.546875 "/></g></g></g><g fill="#ffffff" fill-opacity="1"><g transform="translate(205.010908, 278.677863)"><g><path d="M 2.125 -3.34375 L 2.125 0 L 1 0 L 1 -8.546875 L 4.140625 -8.546875 C 5.078125 -8.546875 5.8125 -8.304688 6.34375 -7.828125 C 6.875 -7.359375 7.140625 -6.726562 7.140625 -5.9375 C 7.140625 -5.101562 6.878906 -4.460938 6.359375 -4.015625 C 5.847656 -3.566406 5.109375 -3.34375 4.140625 -3.34375 Z M 2.125 -4.265625 L 4.140625 -4.265625 C 4.742188 -4.265625 5.207031 -4.40625 5.53125 -4.6875 C 5.851562 -4.976562 6.015625 -5.390625 6.015625 -5.921875 C 6.015625 -6.429688 5.851562 -6.835938 5.53125 -7.140625 C 5.207031 -7.453125 4.769531 -7.613281 4.21875 -7.625 L 2.125 -7.625 Z M 2.125 -4.265625 "/></g></g></g><g fill="#ffffff" fill-opacity="1"><g transform="translate(215.830896, 278.677863)"><g><path d="M 5.828125 -3.953125 L 2.125 -3.953125 L 2.125 -0.921875 L 6.421875 -0.921875 L 6.421875 0 L 1 0 L 1 -8.546875 L 6.375 -8.546875 L 6.375 -7.625 L 2.125 -7.625 L 2.125 -4.875 L 5.828125 -4.875 Z M 5.828125 -3.953125 "/></g></g></g><g fill="#ffffff" fill-opacity="1"><g transform="translate(225.898686, 278.677863)"><g><path d="M 4.125 -3.453125 L 2.125 -3.453125 L 2.125 0 L 0.984375 0 L 0.984375 -8.546875 L 3.8125 -8.546875 C 4.78125 -8.546875 5.523438 -8.328125 6.046875 -7.890625 C 6.566406 -7.453125 6.828125 -6.816406 6.828125 -5.984375 C 6.828125 -5.453125 6.679688 -4.988281 6.390625 -4.59375 C 6.097656 -4.195312 5.695312 -3.898438 5.1875 -3.703125 L 7.203125 -0.078125 L 7.203125 0 L 5.984375 0 Z M 2.125 -4.375 L 3.859375 -4.375 C 4.410156 -4.375 4.851562 -4.519531 5.1875 -4.8125 C 5.519531 -5.101562 5.6875 -5.492188 5.6875 -5.984375 C 5.6875 -6.515625 5.523438 -6.921875 5.203125 -7.203125 C 4.890625 -7.484375 4.4375 -7.625 3.84375 -7.625 L 2.125 -7.625 Z M 2.125 -4.375 "/></g></g></g></svg>